<?xml version="1.0" encoding="UTF-8"?>
<svg width="63px" height="30px" viewBox="0 0 63 30" version="1.1" xmlns="http://www.w3.org/2000/svg" xmlns:xlink="http://www.w3.org/1999/xlink">
    <title>Logo</title>
    <g id="Minn-Max-Achievements" stroke="none" stroke-width="1" fill="none" fill-rule="evenodd">
        <g id="MinnMax-Achievement-Copy" transform="translate(-23.000000, -38.000000)" fill="#FFFFFF">
            <g id="Logo" transform="translate(23.000000, 38.000000)">
                <g id="Down-Arrow" transform="translate(15.000000, 15.000000) rotate(-270.000000) translate(-15.000000, -15.000000) ">
                    <path d="M30,0 L30,12 L29.999,12 L30,30 L18,30 L17.999,20.486 L8.63609677,29.8491862 L0.150867308,21.3639567 L9.513,12 L0,12 L0,0 L30,0 Z" id="Combined-Shape"></path>
                </g>
                <g id="Up-Arrow" transform="translate(33.000000, 0.000000)">
                    <path d="M30,0 L30,12 L29.999,12 L30,30 L18,30 L17.999,20.486 L8.63609677,29.8491862 L0.150867308,21.3639567 L9.513,12 L0,12 L0,0 L30,0 Z" id="Combined-Shape"></path>
                </g>
            </g>
        </g>
    </g>
</svg>